%TF.GenerationSoftware,KiCad,Pcbnew,7.0.1*%
%TF.CreationDate,2024-05-21T14:39:31-07:00*%
%TF.ProjectId,Power_Filter_Board_V1,506f7765-725f-4466-996c-7465725f426f,rev?*%
%TF.SameCoordinates,Original*%
%TF.FileFunction,Drillmap*%
%TF.FilePolarity,Positive*%
%FSLAX45Y45*%
G04 Gerber Fmt 4.5, Leading zero omitted, Abs format (unit mm)*
G04 Created by KiCad (PCBNEW 7.0.1) date 2024-05-21 14:39:31*
%MOMM*%
%LPD*%
G01*
G04 APERTURE LIST*
%ADD10C,0.100000*%
%ADD11C,0.200000*%
G04 APERTURE END LIST*
D10*
X12491000Y-10101000D02*
G75*
G03*
X12991000Y-10601000I500000J0D01*
G01*
X15954000Y-10601000D02*
G75*
G03*
X16454000Y-10101000I0J500000D01*
G01*
X15954000Y-10601000D02*
X12991000Y-10601000D01*
X12991000Y-9305000D02*
G75*
G03*
X12491000Y-9805000I0J-500000D01*
G01*
X12491000Y-10101000D02*
X12491000Y-9805000D01*
X16454000Y-9805000D02*
G75*
G03*
X15954000Y-9305000I-500000J0D01*
G01*
X16454000Y-9805000D02*
X16454000Y-10101000D01*
X12991000Y-9305000D02*
X15954000Y-9305000D01*
D11*
X12733619Y-10918524D02*
X12733619Y-10718524D01*
X12733619Y-10718524D02*
X12781238Y-10718524D01*
X12781238Y-10718524D02*
X12809809Y-10728048D01*
X12809809Y-10728048D02*
X12828857Y-10747095D01*
X12828857Y-10747095D02*
X12838381Y-10766143D01*
X12838381Y-10766143D02*
X12847905Y-10804238D01*
X12847905Y-10804238D02*
X12847905Y-10832810D01*
X12847905Y-10832810D02*
X12838381Y-10870905D01*
X12838381Y-10870905D02*
X12828857Y-10889952D01*
X12828857Y-10889952D02*
X12809809Y-10909000D01*
X12809809Y-10909000D02*
X12781238Y-10918524D01*
X12781238Y-10918524D02*
X12733619Y-10918524D01*
X12933619Y-10918524D02*
X12933619Y-10785190D01*
X12933619Y-10823286D02*
X12943143Y-10804238D01*
X12943143Y-10804238D02*
X12952667Y-10794714D01*
X12952667Y-10794714D02*
X12971714Y-10785190D01*
X12971714Y-10785190D02*
X12990762Y-10785190D01*
X13057428Y-10918524D02*
X13057428Y-10785190D01*
X13057428Y-10718524D02*
X13047905Y-10728048D01*
X13047905Y-10728048D02*
X13057428Y-10737571D01*
X13057428Y-10737571D02*
X13066952Y-10728048D01*
X13066952Y-10728048D02*
X13057428Y-10718524D01*
X13057428Y-10718524D02*
X13057428Y-10737571D01*
X13181238Y-10918524D02*
X13162190Y-10909000D01*
X13162190Y-10909000D02*
X13152667Y-10889952D01*
X13152667Y-10889952D02*
X13152667Y-10718524D01*
X13286000Y-10918524D02*
X13266952Y-10909000D01*
X13266952Y-10909000D02*
X13257428Y-10889952D01*
X13257428Y-10889952D02*
X13257428Y-10718524D01*
X13514571Y-10918524D02*
X13514571Y-10718524D01*
X13514571Y-10718524D02*
X13581238Y-10861381D01*
X13581238Y-10861381D02*
X13647905Y-10718524D01*
X13647905Y-10718524D02*
X13647905Y-10918524D01*
X13828857Y-10918524D02*
X13828857Y-10813762D01*
X13828857Y-10813762D02*
X13819333Y-10794714D01*
X13819333Y-10794714D02*
X13800286Y-10785190D01*
X13800286Y-10785190D02*
X13762190Y-10785190D01*
X13762190Y-10785190D02*
X13743143Y-10794714D01*
X13828857Y-10909000D02*
X13809809Y-10918524D01*
X13809809Y-10918524D02*
X13762190Y-10918524D01*
X13762190Y-10918524D02*
X13743143Y-10909000D01*
X13743143Y-10909000D02*
X13733619Y-10889952D01*
X13733619Y-10889952D02*
X13733619Y-10870905D01*
X13733619Y-10870905D02*
X13743143Y-10851857D01*
X13743143Y-10851857D02*
X13762190Y-10842333D01*
X13762190Y-10842333D02*
X13809809Y-10842333D01*
X13809809Y-10842333D02*
X13828857Y-10832810D01*
X13924095Y-10785190D02*
X13924095Y-10985190D01*
X13924095Y-10794714D02*
X13943143Y-10785190D01*
X13943143Y-10785190D02*
X13981238Y-10785190D01*
X13981238Y-10785190D02*
X14000286Y-10794714D01*
X14000286Y-10794714D02*
X14009809Y-10804238D01*
X14009809Y-10804238D02*
X14019333Y-10823286D01*
X14019333Y-10823286D02*
X14019333Y-10880429D01*
X14019333Y-10880429D02*
X14009809Y-10899476D01*
X14009809Y-10899476D02*
X14000286Y-10909000D01*
X14000286Y-10909000D02*
X13981238Y-10918524D01*
X13981238Y-10918524D02*
X13943143Y-10918524D01*
X13943143Y-10918524D02*
X13924095Y-10909000D01*
X14105048Y-10899476D02*
X14114571Y-10909000D01*
X14114571Y-10909000D02*
X14105048Y-10918524D01*
X14105048Y-10918524D02*
X14095524Y-10909000D01*
X14095524Y-10909000D02*
X14105048Y-10899476D01*
X14105048Y-10899476D02*
X14105048Y-10918524D01*
X14105048Y-10794714D02*
X14114571Y-10804238D01*
X14114571Y-10804238D02*
X14105048Y-10813762D01*
X14105048Y-10813762D02*
X14095524Y-10804238D01*
X14095524Y-10804238D02*
X14105048Y-10794714D01*
X14105048Y-10794714D02*
X14105048Y-10813762D01*
M02*
