%TF.GenerationSoftware,KiCad,Pcbnew,7.0.1*%
%TF.CreationDate,2024-05-21T14:39:31-07:00*%
%TF.ProjectId,Power_Filter_Board_V1,506f7765-725f-4466-996c-7465725f426f,rev?*%
%TF.SameCoordinates,Original*%
%TF.FileFunction,Drillmap*%
%TF.FilePolarity,Positive*%
%FSLAX45Y45*%
G04 Gerber Fmt 4.5, Leading zero omitted, Abs format (unit mm)*
G04 Created by KiCad (PCBNEW 7.0.1) date 2024-05-21 14:39:31*
%MOMM*%
%LPD*%
G01*
G04 APERTURE LIST*
%ADD10C,0.100000*%
%ADD11C,0.200000*%
%ADD12C,0.450000*%
G04 APERTURE END LIST*
D10*
X12491000Y-10101000D02*
G75*
G03*
X12991000Y-10601000I500000J0D01*
G01*
X15954000Y-10601000D02*
G75*
G03*
X16454000Y-10101000I0J500000D01*
G01*
X15954000Y-10601000D02*
X12991000Y-10601000D01*
X12991000Y-9305000D02*
G75*
G03*
X12491000Y-9805000I0J-500000D01*
G01*
X12491000Y-10101000D02*
X12491000Y-9805000D01*
X16454000Y-9805000D02*
G75*
G03*
X15954000Y-9305000I-500000J0D01*
G01*
X16454000Y-9805000D02*
X16454000Y-10101000D01*
X12991000Y-9305000D02*
X15954000Y-9305000D01*
D11*
D10*
X12991000Y-9746768D02*
X13091000Y-9846768D01*
X13091000Y-9746768D02*
X12991000Y-9846768D01*
X12991000Y-10246768D02*
X13091000Y-10346768D01*
X13091000Y-10246768D02*
X12991000Y-10346768D01*
X15852000Y-9743000D02*
X15952000Y-9843000D01*
X15952000Y-9743000D02*
X15852000Y-9843000D01*
X15852000Y-10243000D02*
X15952000Y-10343000D01*
X15952000Y-10243000D02*
X15852000Y-10343000D01*
D12*
X14349000Y-9716000D02*
G75*
G03*
X14349000Y-9716000I-225000J0D01*
G01*
X15069000Y-9716000D02*
G75*
G03*
X15069000Y-9716000I-225000J0D01*
G01*
D11*
X12733619Y-10918524D02*
X12733619Y-10718524D01*
X12733619Y-10718524D02*
X12781238Y-10718524D01*
X12781238Y-10718524D02*
X12809809Y-10728048D01*
X12809809Y-10728048D02*
X12828857Y-10747095D01*
X12828857Y-10747095D02*
X12838381Y-10766143D01*
X12838381Y-10766143D02*
X12847905Y-10804238D01*
X12847905Y-10804238D02*
X12847905Y-10832810D01*
X12847905Y-10832810D02*
X12838381Y-10870905D01*
X12838381Y-10870905D02*
X12828857Y-10889952D01*
X12828857Y-10889952D02*
X12809809Y-10909000D01*
X12809809Y-10909000D02*
X12781238Y-10918524D01*
X12781238Y-10918524D02*
X12733619Y-10918524D01*
X12933619Y-10918524D02*
X12933619Y-10785190D01*
X12933619Y-10823286D02*
X12943143Y-10804238D01*
X12943143Y-10804238D02*
X12952667Y-10794714D01*
X12952667Y-10794714D02*
X12971714Y-10785190D01*
X12971714Y-10785190D02*
X12990762Y-10785190D01*
X13057428Y-10918524D02*
X13057428Y-10785190D01*
X13057428Y-10718524D02*
X13047905Y-10728048D01*
X13047905Y-10728048D02*
X13057428Y-10737571D01*
X13057428Y-10737571D02*
X13066952Y-10728048D01*
X13066952Y-10728048D02*
X13057428Y-10718524D01*
X13057428Y-10718524D02*
X13057428Y-10737571D01*
X13181238Y-10918524D02*
X13162190Y-10909000D01*
X13162190Y-10909000D02*
X13152667Y-10889952D01*
X13152667Y-10889952D02*
X13152667Y-10718524D01*
X13286000Y-10918524D02*
X13266952Y-10909000D01*
X13266952Y-10909000D02*
X13257428Y-10889952D01*
X13257428Y-10889952D02*
X13257428Y-10718524D01*
X13514571Y-10918524D02*
X13514571Y-10718524D01*
X13514571Y-10718524D02*
X13581238Y-10861381D01*
X13581238Y-10861381D02*
X13647905Y-10718524D01*
X13647905Y-10718524D02*
X13647905Y-10918524D01*
X13828857Y-10918524D02*
X13828857Y-10813762D01*
X13828857Y-10813762D02*
X13819333Y-10794714D01*
X13819333Y-10794714D02*
X13800286Y-10785190D01*
X13800286Y-10785190D02*
X13762190Y-10785190D01*
X13762190Y-10785190D02*
X13743143Y-10794714D01*
X13828857Y-10909000D02*
X13809809Y-10918524D01*
X13809809Y-10918524D02*
X13762190Y-10918524D01*
X13762190Y-10918524D02*
X13743143Y-10909000D01*
X13743143Y-10909000D02*
X13733619Y-10889952D01*
X13733619Y-10889952D02*
X13733619Y-10870905D01*
X13733619Y-10870905D02*
X13743143Y-10851857D01*
X13743143Y-10851857D02*
X13762190Y-10842333D01*
X13762190Y-10842333D02*
X13809809Y-10842333D01*
X13809809Y-10842333D02*
X13828857Y-10832810D01*
X13924095Y-10785190D02*
X13924095Y-10985190D01*
X13924095Y-10794714D02*
X13943143Y-10785190D01*
X13943143Y-10785190D02*
X13981238Y-10785190D01*
X13981238Y-10785190D02*
X14000286Y-10794714D01*
X14000286Y-10794714D02*
X14009809Y-10804238D01*
X14009809Y-10804238D02*
X14019333Y-10823286D01*
X14019333Y-10823286D02*
X14019333Y-10880429D01*
X14019333Y-10880429D02*
X14009809Y-10899476D01*
X14009809Y-10899476D02*
X14000286Y-10909000D01*
X14000286Y-10909000D02*
X13981238Y-10918524D01*
X13981238Y-10918524D02*
X13943143Y-10918524D01*
X13943143Y-10918524D02*
X13924095Y-10909000D01*
X14105048Y-10899476D02*
X14114571Y-10909000D01*
X14114571Y-10909000D02*
X14105048Y-10918524D01*
X14105048Y-10918524D02*
X14095524Y-10909000D01*
X14095524Y-10909000D02*
X14105048Y-10899476D01*
X14105048Y-10899476D02*
X14105048Y-10918524D01*
X14105048Y-10794714D02*
X14114571Y-10804238D01*
X14114571Y-10804238D02*
X14105048Y-10813762D01*
X14105048Y-10813762D02*
X14095524Y-10804238D01*
X14095524Y-10804238D02*
X14105048Y-10794714D01*
X14105048Y-10794714D02*
X14105048Y-10813762D01*
D10*
X12386000Y-11196000D02*
X12486000Y-11296000D01*
X12486000Y-11196000D02*
X12386000Y-11296000D01*
D11*
X12838381Y-11338524D02*
X12724095Y-11338524D01*
X12781238Y-11338524D02*
X12781238Y-11138524D01*
X12781238Y-11138524D02*
X12762190Y-11167095D01*
X12762190Y-11167095D02*
X12743143Y-11186143D01*
X12743143Y-11186143D02*
X12724095Y-11195667D01*
X12924095Y-11319476D02*
X12933619Y-11329000D01*
X12933619Y-11329000D02*
X12924095Y-11338524D01*
X12924095Y-11338524D02*
X12914571Y-11329000D01*
X12914571Y-11329000D02*
X12924095Y-11319476D01*
X12924095Y-11319476D02*
X12924095Y-11338524D01*
X13057428Y-11138524D02*
X13076476Y-11138524D01*
X13076476Y-11138524D02*
X13095524Y-11148048D01*
X13095524Y-11148048D02*
X13105048Y-11157571D01*
X13105048Y-11157571D02*
X13114571Y-11176619D01*
X13114571Y-11176619D02*
X13124095Y-11214714D01*
X13124095Y-11214714D02*
X13124095Y-11262333D01*
X13124095Y-11262333D02*
X13114571Y-11300428D01*
X13114571Y-11300428D02*
X13105048Y-11319476D01*
X13105048Y-11319476D02*
X13095524Y-11329000D01*
X13095524Y-11329000D02*
X13076476Y-11338524D01*
X13076476Y-11338524D02*
X13057428Y-11338524D01*
X13057428Y-11338524D02*
X13038381Y-11329000D01*
X13038381Y-11329000D02*
X13028857Y-11319476D01*
X13028857Y-11319476D02*
X13019333Y-11300428D01*
X13019333Y-11300428D02*
X13009809Y-11262333D01*
X13009809Y-11262333D02*
X13009809Y-11214714D01*
X13009809Y-11214714D02*
X13019333Y-11176619D01*
X13019333Y-11176619D02*
X13028857Y-11157571D01*
X13028857Y-11157571D02*
X13038381Y-11148048D01*
X13038381Y-11148048D02*
X13057428Y-11138524D01*
X13247905Y-11138524D02*
X13266952Y-11138524D01*
X13266952Y-11138524D02*
X13286000Y-11148048D01*
X13286000Y-11148048D02*
X13295524Y-11157571D01*
X13295524Y-11157571D02*
X13305048Y-11176619D01*
X13305048Y-11176619D02*
X13314571Y-11214714D01*
X13314571Y-11214714D02*
X13314571Y-11262333D01*
X13314571Y-11262333D02*
X13305048Y-11300428D01*
X13305048Y-11300428D02*
X13295524Y-11319476D01*
X13295524Y-11319476D02*
X13286000Y-11329000D01*
X13286000Y-11329000D02*
X13266952Y-11338524D01*
X13266952Y-11338524D02*
X13247905Y-11338524D01*
X13247905Y-11338524D02*
X13228857Y-11329000D01*
X13228857Y-11329000D02*
X13219333Y-11319476D01*
X13219333Y-11319476D02*
X13209809Y-11300428D01*
X13209809Y-11300428D02*
X13200286Y-11262333D01*
X13200286Y-11262333D02*
X13200286Y-11214714D01*
X13200286Y-11214714D02*
X13209809Y-11176619D01*
X13209809Y-11176619D02*
X13219333Y-11157571D01*
X13219333Y-11157571D02*
X13228857Y-11148048D01*
X13228857Y-11148048D02*
X13247905Y-11138524D01*
X13438381Y-11138524D02*
X13457429Y-11138524D01*
X13457429Y-11138524D02*
X13476476Y-11148048D01*
X13476476Y-11148048D02*
X13486000Y-11157571D01*
X13486000Y-11157571D02*
X13495524Y-11176619D01*
X13495524Y-11176619D02*
X13505048Y-11214714D01*
X13505048Y-11214714D02*
X13505048Y-11262333D01*
X13505048Y-11262333D02*
X13495524Y-11300428D01*
X13495524Y-11300428D02*
X13486000Y-11319476D01*
X13486000Y-11319476D02*
X13476476Y-11329000D01*
X13476476Y-11329000D02*
X13457429Y-11338524D01*
X13457429Y-11338524D02*
X13438381Y-11338524D01*
X13438381Y-11338524D02*
X13419333Y-11329000D01*
X13419333Y-11329000D02*
X13409809Y-11319476D01*
X13409809Y-11319476D02*
X13400286Y-11300428D01*
X13400286Y-11300428D02*
X13390762Y-11262333D01*
X13390762Y-11262333D02*
X13390762Y-11214714D01*
X13390762Y-11214714D02*
X13400286Y-11176619D01*
X13400286Y-11176619D02*
X13409809Y-11157571D01*
X13409809Y-11157571D02*
X13419333Y-11148048D01*
X13419333Y-11148048D02*
X13438381Y-11138524D01*
X13590762Y-11338524D02*
X13590762Y-11205190D01*
X13590762Y-11224238D02*
X13600286Y-11214714D01*
X13600286Y-11214714D02*
X13619333Y-11205190D01*
X13619333Y-11205190D02*
X13647905Y-11205190D01*
X13647905Y-11205190D02*
X13666952Y-11214714D01*
X13666952Y-11214714D02*
X13676476Y-11233762D01*
X13676476Y-11233762D02*
X13676476Y-11338524D01*
X13676476Y-11233762D02*
X13686000Y-11214714D01*
X13686000Y-11214714D02*
X13705048Y-11205190D01*
X13705048Y-11205190D02*
X13733619Y-11205190D01*
X13733619Y-11205190D02*
X13752667Y-11214714D01*
X13752667Y-11214714D02*
X13762190Y-11233762D01*
X13762190Y-11233762D02*
X13762190Y-11338524D01*
X13857429Y-11338524D02*
X13857429Y-11205190D01*
X13857429Y-11224238D02*
X13866952Y-11214714D01*
X13866952Y-11214714D02*
X13886000Y-11205190D01*
X13886000Y-11205190D02*
X13914571Y-11205190D01*
X13914571Y-11205190D02*
X13933619Y-11214714D01*
X13933619Y-11214714D02*
X13943143Y-11233762D01*
X13943143Y-11233762D02*
X13943143Y-11338524D01*
X13943143Y-11233762D02*
X13952667Y-11214714D01*
X13952667Y-11214714D02*
X13971714Y-11205190D01*
X13971714Y-11205190D02*
X14000286Y-11205190D01*
X14000286Y-11205190D02*
X14019333Y-11214714D01*
X14019333Y-11214714D02*
X14028857Y-11233762D01*
X14028857Y-11233762D02*
X14028857Y-11338524D01*
X14419333Y-11129000D02*
X14247905Y-11386143D01*
X14676476Y-11138524D02*
X14695524Y-11138524D01*
X14695524Y-11138524D02*
X14714572Y-11148048D01*
X14714572Y-11148048D02*
X14724095Y-11157571D01*
X14724095Y-11157571D02*
X14733619Y-11176619D01*
X14733619Y-11176619D02*
X14743143Y-11214714D01*
X14743143Y-11214714D02*
X14743143Y-11262333D01*
X14743143Y-11262333D02*
X14733619Y-11300428D01*
X14733619Y-11300428D02*
X14724095Y-11319476D01*
X14724095Y-11319476D02*
X14714572Y-11329000D01*
X14714572Y-11329000D02*
X14695524Y-11338524D01*
X14695524Y-11338524D02*
X14676476Y-11338524D01*
X14676476Y-11338524D02*
X14657429Y-11329000D01*
X14657429Y-11329000D02*
X14647905Y-11319476D01*
X14647905Y-11319476D02*
X14638381Y-11300428D01*
X14638381Y-11300428D02*
X14628857Y-11262333D01*
X14628857Y-11262333D02*
X14628857Y-11214714D01*
X14628857Y-11214714D02*
X14638381Y-11176619D01*
X14638381Y-11176619D02*
X14647905Y-11157571D01*
X14647905Y-11157571D02*
X14657429Y-11148048D01*
X14657429Y-11148048D02*
X14676476Y-11138524D01*
X14828857Y-11319476D02*
X14838381Y-11329000D01*
X14838381Y-11329000D02*
X14828857Y-11338524D01*
X14828857Y-11338524D02*
X14819333Y-11329000D01*
X14819333Y-11329000D02*
X14828857Y-11319476D01*
X14828857Y-11319476D02*
X14828857Y-11338524D01*
X14962191Y-11138524D02*
X14981238Y-11138524D01*
X14981238Y-11138524D02*
X15000286Y-11148048D01*
X15000286Y-11148048D02*
X15009810Y-11157571D01*
X15009810Y-11157571D02*
X15019333Y-11176619D01*
X15019333Y-11176619D02*
X15028857Y-11214714D01*
X15028857Y-11214714D02*
X15028857Y-11262333D01*
X15028857Y-11262333D02*
X15019333Y-11300428D01*
X15019333Y-11300428D02*
X15009810Y-11319476D01*
X15009810Y-11319476D02*
X15000286Y-11329000D01*
X15000286Y-11329000D02*
X14981238Y-11338524D01*
X14981238Y-11338524D02*
X14962191Y-11338524D01*
X14962191Y-11338524D02*
X14943143Y-11329000D01*
X14943143Y-11329000D02*
X14933619Y-11319476D01*
X14933619Y-11319476D02*
X14924095Y-11300428D01*
X14924095Y-11300428D02*
X14914572Y-11262333D01*
X14914572Y-11262333D02*
X14914572Y-11214714D01*
X14914572Y-11214714D02*
X14924095Y-11176619D01*
X14924095Y-11176619D02*
X14933619Y-11157571D01*
X14933619Y-11157571D02*
X14943143Y-11148048D01*
X14943143Y-11148048D02*
X14962191Y-11138524D01*
X15095524Y-11138524D02*
X15219333Y-11138524D01*
X15219333Y-11138524D02*
X15152667Y-11214714D01*
X15152667Y-11214714D02*
X15181238Y-11214714D01*
X15181238Y-11214714D02*
X15200286Y-11224238D01*
X15200286Y-11224238D02*
X15209810Y-11233762D01*
X15209810Y-11233762D02*
X15219333Y-11252809D01*
X15219333Y-11252809D02*
X15219333Y-11300428D01*
X15219333Y-11300428D02*
X15209810Y-11319476D01*
X15209810Y-11319476D02*
X15200286Y-11329000D01*
X15200286Y-11329000D02*
X15181238Y-11338524D01*
X15181238Y-11338524D02*
X15124095Y-11338524D01*
X15124095Y-11338524D02*
X15105048Y-11329000D01*
X15105048Y-11329000D02*
X15095524Y-11319476D01*
X15314572Y-11338524D02*
X15352667Y-11338524D01*
X15352667Y-11338524D02*
X15371714Y-11329000D01*
X15371714Y-11329000D02*
X15381238Y-11319476D01*
X15381238Y-11319476D02*
X15400286Y-11290905D01*
X15400286Y-11290905D02*
X15409810Y-11252809D01*
X15409810Y-11252809D02*
X15409810Y-11176619D01*
X15409810Y-11176619D02*
X15400286Y-11157571D01*
X15400286Y-11157571D02*
X15390762Y-11148048D01*
X15390762Y-11148048D02*
X15371714Y-11138524D01*
X15371714Y-11138524D02*
X15333619Y-11138524D01*
X15333619Y-11138524D02*
X15314572Y-11148048D01*
X15314572Y-11148048D02*
X15305048Y-11157571D01*
X15305048Y-11157571D02*
X15295524Y-11176619D01*
X15295524Y-11176619D02*
X15295524Y-11224238D01*
X15295524Y-11224238D02*
X15305048Y-11243286D01*
X15305048Y-11243286D02*
X15314572Y-11252809D01*
X15314572Y-11252809D02*
X15333619Y-11262333D01*
X15333619Y-11262333D02*
X15371714Y-11262333D01*
X15371714Y-11262333D02*
X15390762Y-11252809D01*
X15390762Y-11252809D02*
X15400286Y-11243286D01*
X15400286Y-11243286D02*
X15409810Y-11224238D01*
X15581238Y-11205190D02*
X15581238Y-11338524D01*
X15533619Y-11129000D02*
X15486000Y-11271857D01*
X15486000Y-11271857D02*
X15609810Y-11271857D01*
X15676476Y-11138524D02*
X15676476Y-11176619D01*
X15752667Y-11138524D02*
X15752667Y-11176619D01*
X16047905Y-11414714D02*
X16038381Y-11405190D01*
X16038381Y-11405190D02*
X16019334Y-11376619D01*
X16019334Y-11376619D02*
X16009810Y-11357571D01*
X16009810Y-11357571D02*
X16000286Y-11329000D01*
X16000286Y-11329000D02*
X15990762Y-11281381D01*
X15990762Y-11281381D02*
X15990762Y-11243286D01*
X15990762Y-11243286D02*
X16000286Y-11195667D01*
X16000286Y-11195667D02*
X16009810Y-11167095D01*
X16009810Y-11167095D02*
X16019334Y-11148048D01*
X16019334Y-11148048D02*
X16038381Y-11119476D01*
X16038381Y-11119476D02*
X16047905Y-11109952D01*
X16209810Y-11205190D02*
X16209810Y-11338524D01*
X16162191Y-11129000D02*
X16114572Y-11271857D01*
X16114572Y-11271857D02*
X16238381Y-11271857D01*
X16466953Y-11338524D02*
X16466953Y-11138524D01*
X16552667Y-11338524D02*
X16552667Y-11233762D01*
X16552667Y-11233762D02*
X16543143Y-11214714D01*
X16543143Y-11214714D02*
X16524096Y-11205190D01*
X16524096Y-11205190D02*
X16495524Y-11205190D01*
X16495524Y-11205190D02*
X16476476Y-11214714D01*
X16476476Y-11214714D02*
X16466953Y-11224238D01*
X16676476Y-11338524D02*
X16657429Y-11329000D01*
X16657429Y-11329000D02*
X16647905Y-11319476D01*
X16647905Y-11319476D02*
X16638381Y-11300428D01*
X16638381Y-11300428D02*
X16638381Y-11243286D01*
X16638381Y-11243286D02*
X16647905Y-11224238D01*
X16647905Y-11224238D02*
X16657429Y-11214714D01*
X16657429Y-11214714D02*
X16676476Y-11205190D01*
X16676476Y-11205190D02*
X16705048Y-11205190D01*
X16705048Y-11205190D02*
X16724096Y-11214714D01*
X16724096Y-11214714D02*
X16733619Y-11224238D01*
X16733619Y-11224238D02*
X16743143Y-11243286D01*
X16743143Y-11243286D02*
X16743143Y-11300428D01*
X16743143Y-11300428D02*
X16733619Y-11319476D01*
X16733619Y-11319476D02*
X16724096Y-11329000D01*
X16724096Y-11329000D02*
X16705048Y-11338524D01*
X16705048Y-11338524D02*
X16676476Y-11338524D01*
X16857429Y-11338524D02*
X16838381Y-11329000D01*
X16838381Y-11329000D02*
X16828858Y-11309952D01*
X16828858Y-11309952D02*
X16828858Y-11138524D01*
X17009810Y-11329000D02*
X16990762Y-11338524D01*
X16990762Y-11338524D02*
X16952667Y-11338524D01*
X16952667Y-11338524D02*
X16933619Y-11329000D01*
X16933619Y-11329000D02*
X16924096Y-11309952D01*
X16924096Y-11309952D02*
X16924096Y-11233762D01*
X16924096Y-11233762D02*
X16933619Y-11214714D01*
X16933619Y-11214714D02*
X16952667Y-11205190D01*
X16952667Y-11205190D02*
X16990762Y-11205190D01*
X16990762Y-11205190D02*
X17009810Y-11214714D01*
X17009810Y-11214714D02*
X17019334Y-11233762D01*
X17019334Y-11233762D02*
X17019334Y-11252809D01*
X17019334Y-11252809D02*
X16924096Y-11271857D01*
X17095524Y-11329000D02*
X17114572Y-11338524D01*
X17114572Y-11338524D02*
X17152667Y-11338524D01*
X17152667Y-11338524D02*
X17171715Y-11329000D01*
X17171715Y-11329000D02*
X17181239Y-11309952D01*
X17181239Y-11309952D02*
X17181239Y-11300428D01*
X17181239Y-11300428D02*
X17171715Y-11281381D01*
X17171715Y-11281381D02*
X17152667Y-11271857D01*
X17152667Y-11271857D02*
X17124096Y-11271857D01*
X17124096Y-11271857D02*
X17105048Y-11262333D01*
X17105048Y-11262333D02*
X17095524Y-11243286D01*
X17095524Y-11243286D02*
X17095524Y-11233762D01*
X17095524Y-11233762D02*
X17105048Y-11214714D01*
X17105048Y-11214714D02*
X17124096Y-11205190D01*
X17124096Y-11205190D02*
X17152667Y-11205190D01*
X17152667Y-11205190D02*
X17171715Y-11214714D01*
X17247905Y-11414714D02*
X17257429Y-11405190D01*
X17257429Y-11405190D02*
X17276477Y-11376619D01*
X17276477Y-11376619D02*
X17286000Y-11357571D01*
X17286000Y-11357571D02*
X17295524Y-11329000D01*
X17295524Y-11329000D02*
X17305048Y-11281381D01*
X17305048Y-11281381D02*
X17305048Y-11243286D01*
X17305048Y-11243286D02*
X17295524Y-11195667D01*
X17295524Y-11195667D02*
X17286000Y-11167095D01*
X17286000Y-11167095D02*
X17276477Y-11148048D01*
X17276477Y-11148048D02*
X17257429Y-11119476D01*
X17257429Y-11119476D02*
X17247905Y-11109952D01*
X12486000Y-11510000D02*
G75*
G03*
X12486000Y-11510000I-100000J0D01*
G01*
X12819333Y-11469190D02*
X12819333Y-11602524D01*
X12771714Y-11393000D02*
X12724095Y-11535857D01*
X12724095Y-11535857D02*
X12847905Y-11535857D01*
X12924095Y-11583476D02*
X12933619Y-11593000D01*
X12933619Y-11593000D02*
X12924095Y-11602524D01*
X12924095Y-11602524D02*
X12914571Y-11593000D01*
X12914571Y-11593000D02*
X12924095Y-11583476D01*
X12924095Y-11583476D02*
X12924095Y-11602524D01*
X13114571Y-11402524D02*
X13019333Y-11402524D01*
X13019333Y-11402524D02*
X13009809Y-11497762D01*
X13009809Y-11497762D02*
X13019333Y-11488238D01*
X13019333Y-11488238D02*
X13038381Y-11478714D01*
X13038381Y-11478714D02*
X13086000Y-11478714D01*
X13086000Y-11478714D02*
X13105048Y-11488238D01*
X13105048Y-11488238D02*
X13114571Y-11497762D01*
X13114571Y-11497762D02*
X13124095Y-11516809D01*
X13124095Y-11516809D02*
X13124095Y-11564428D01*
X13124095Y-11564428D02*
X13114571Y-11583476D01*
X13114571Y-11583476D02*
X13105048Y-11593000D01*
X13105048Y-11593000D02*
X13086000Y-11602524D01*
X13086000Y-11602524D02*
X13038381Y-11602524D01*
X13038381Y-11602524D02*
X13019333Y-11593000D01*
X13019333Y-11593000D02*
X13009809Y-11583476D01*
X13247905Y-11402524D02*
X13266952Y-11402524D01*
X13266952Y-11402524D02*
X13286000Y-11412048D01*
X13286000Y-11412048D02*
X13295524Y-11421571D01*
X13295524Y-11421571D02*
X13305048Y-11440619D01*
X13305048Y-11440619D02*
X13314571Y-11478714D01*
X13314571Y-11478714D02*
X13314571Y-11526333D01*
X13314571Y-11526333D02*
X13305048Y-11564428D01*
X13305048Y-11564428D02*
X13295524Y-11583476D01*
X13295524Y-11583476D02*
X13286000Y-11593000D01*
X13286000Y-11593000D02*
X13266952Y-11602524D01*
X13266952Y-11602524D02*
X13247905Y-11602524D01*
X13247905Y-11602524D02*
X13228857Y-11593000D01*
X13228857Y-11593000D02*
X13219333Y-11583476D01*
X13219333Y-11583476D02*
X13209809Y-11564428D01*
X13209809Y-11564428D02*
X13200286Y-11526333D01*
X13200286Y-11526333D02*
X13200286Y-11478714D01*
X13200286Y-11478714D02*
X13209809Y-11440619D01*
X13209809Y-11440619D02*
X13219333Y-11421571D01*
X13219333Y-11421571D02*
X13228857Y-11412048D01*
X13228857Y-11412048D02*
X13247905Y-11402524D01*
X13438381Y-11402524D02*
X13457429Y-11402524D01*
X13457429Y-11402524D02*
X13476476Y-11412048D01*
X13476476Y-11412048D02*
X13486000Y-11421571D01*
X13486000Y-11421571D02*
X13495524Y-11440619D01*
X13495524Y-11440619D02*
X13505048Y-11478714D01*
X13505048Y-11478714D02*
X13505048Y-11526333D01*
X13505048Y-11526333D02*
X13495524Y-11564428D01*
X13495524Y-11564428D02*
X13486000Y-11583476D01*
X13486000Y-11583476D02*
X13476476Y-11593000D01*
X13476476Y-11593000D02*
X13457429Y-11602524D01*
X13457429Y-11602524D02*
X13438381Y-11602524D01*
X13438381Y-11602524D02*
X13419333Y-11593000D01*
X13419333Y-11593000D02*
X13409809Y-11583476D01*
X13409809Y-11583476D02*
X13400286Y-11564428D01*
X13400286Y-11564428D02*
X13390762Y-11526333D01*
X13390762Y-11526333D02*
X13390762Y-11478714D01*
X13390762Y-11478714D02*
X13400286Y-11440619D01*
X13400286Y-11440619D02*
X13409809Y-11421571D01*
X13409809Y-11421571D02*
X13419333Y-11412048D01*
X13419333Y-11412048D02*
X13438381Y-11402524D01*
X13590762Y-11602524D02*
X13590762Y-11469190D01*
X13590762Y-11488238D02*
X13600286Y-11478714D01*
X13600286Y-11478714D02*
X13619333Y-11469190D01*
X13619333Y-11469190D02*
X13647905Y-11469190D01*
X13647905Y-11469190D02*
X13666952Y-11478714D01*
X13666952Y-11478714D02*
X13676476Y-11497762D01*
X13676476Y-11497762D02*
X13676476Y-11602524D01*
X13676476Y-11497762D02*
X13686000Y-11478714D01*
X13686000Y-11478714D02*
X13705048Y-11469190D01*
X13705048Y-11469190D02*
X13733619Y-11469190D01*
X13733619Y-11469190D02*
X13752667Y-11478714D01*
X13752667Y-11478714D02*
X13762190Y-11497762D01*
X13762190Y-11497762D02*
X13762190Y-11602524D01*
X13857429Y-11602524D02*
X13857429Y-11469190D01*
X13857429Y-11488238D02*
X13866952Y-11478714D01*
X13866952Y-11478714D02*
X13886000Y-11469190D01*
X13886000Y-11469190D02*
X13914571Y-11469190D01*
X13914571Y-11469190D02*
X13933619Y-11478714D01*
X13933619Y-11478714D02*
X13943143Y-11497762D01*
X13943143Y-11497762D02*
X13943143Y-11602524D01*
X13943143Y-11497762D02*
X13952667Y-11478714D01*
X13952667Y-11478714D02*
X13971714Y-11469190D01*
X13971714Y-11469190D02*
X14000286Y-11469190D01*
X14000286Y-11469190D02*
X14019333Y-11478714D01*
X14019333Y-11478714D02*
X14028857Y-11497762D01*
X14028857Y-11497762D02*
X14028857Y-11602524D01*
X14419333Y-11393000D02*
X14247905Y-11650143D01*
X14676476Y-11402524D02*
X14695524Y-11402524D01*
X14695524Y-11402524D02*
X14714572Y-11412048D01*
X14714572Y-11412048D02*
X14724095Y-11421571D01*
X14724095Y-11421571D02*
X14733619Y-11440619D01*
X14733619Y-11440619D02*
X14743143Y-11478714D01*
X14743143Y-11478714D02*
X14743143Y-11526333D01*
X14743143Y-11526333D02*
X14733619Y-11564428D01*
X14733619Y-11564428D02*
X14724095Y-11583476D01*
X14724095Y-11583476D02*
X14714572Y-11593000D01*
X14714572Y-11593000D02*
X14695524Y-11602524D01*
X14695524Y-11602524D02*
X14676476Y-11602524D01*
X14676476Y-11602524D02*
X14657429Y-11593000D01*
X14657429Y-11593000D02*
X14647905Y-11583476D01*
X14647905Y-11583476D02*
X14638381Y-11564428D01*
X14638381Y-11564428D02*
X14628857Y-11526333D01*
X14628857Y-11526333D02*
X14628857Y-11478714D01*
X14628857Y-11478714D02*
X14638381Y-11440619D01*
X14638381Y-11440619D02*
X14647905Y-11421571D01*
X14647905Y-11421571D02*
X14657429Y-11412048D01*
X14657429Y-11412048D02*
X14676476Y-11402524D01*
X14828857Y-11583476D02*
X14838381Y-11593000D01*
X14838381Y-11593000D02*
X14828857Y-11602524D01*
X14828857Y-11602524D02*
X14819333Y-11593000D01*
X14819333Y-11593000D02*
X14828857Y-11583476D01*
X14828857Y-11583476D02*
X14828857Y-11602524D01*
X15028857Y-11602524D02*
X14914572Y-11602524D01*
X14971714Y-11602524D02*
X14971714Y-11402524D01*
X14971714Y-11402524D02*
X14952667Y-11431095D01*
X14952667Y-11431095D02*
X14933619Y-11450143D01*
X14933619Y-11450143D02*
X14914572Y-11459667D01*
X15095524Y-11402524D02*
X15228857Y-11402524D01*
X15228857Y-11402524D02*
X15143143Y-11602524D01*
X15286000Y-11402524D02*
X15419333Y-11402524D01*
X15419333Y-11402524D02*
X15333619Y-11602524D01*
X15486000Y-11421571D02*
X15495524Y-11412048D01*
X15495524Y-11412048D02*
X15514572Y-11402524D01*
X15514572Y-11402524D02*
X15562191Y-11402524D01*
X15562191Y-11402524D02*
X15581238Y-11412048D01*
X15581238Y-11412048D02*
X15590762Y-11421571D01*
X15590762Y-11421571D02*
X15600286Y-11440619D01*
X15600286Y-11440619D02*
X15600286Y-11459667D01*
X15600286Y-11459667D02*
X15590762Y-11488238D01*
X15590762Y-11488238D02*
X15476476Y-11602524D01*
X15476476Y-11602524D02*
X15600286Y-11602524D01*
X15676476Y-11402524D02*
X15676476Y-11440619D01*
X15752667Y-11402524D02*
X15752667Y-11440619D01*
X16047905Y-11678714D02*
X16038381Y-11669190D01*
X16038381Y-11669190D02*
X16019334Y-11640619D01*
X16019334Y-11640619D02*
X16009810Y-11621571D01*
X16009810Y-11621571D02*
X16000286Y-11593000D01*
X16000286Y-11593000D02*
X15990762Y-11545381D01*
X15990762Y-11545381D02*
X15990762Y-11507286D01*
X15990762Y-11507286D02*
X16000286Y-11459667D01*
X16000286Y-11459667D02*
X16009810Y-11431095D01*
X16009810Y-11431095D02*
X16019334Y-11412048D01*
X16019334Y-11412048D02*
X16038381Y-11383476D01*
X16038381Y-11383476D02*
X16047905Y-11373952D01*
X16114572Y-11421571D02*
X16124095Y-11412048D01*
X16124095Y-11412048D02*
X16143143Y-11402524D01*
X16143143Y-11402524D02*
X16190762Y-11402524D01*
X16190762Y-11402524D02*
X16209810Y-11412048D01*
X16209810Y-11412048D02*
X16219334Y-11421571D01*
X16219334Y-11421571D02*
X16228857Y-11440619D01*
X16228857Y-11440619D02*
X16228857Y-11459667D01*
X16228857Y-11459667D02*
X16219334Y-11488238D01*
X16219334Y-11488238D02*
X16105048Y-11602524D01*
X16105048Y-11602524D02*
X16228857Y-11602524D01*
X16466953Y-11602524D02*
X16466953Y-11402524D01*
X16552667Y-11602524D02*
X16552667Y-11497762D01*
X16552667Y-11497762D02*
X16543143Y-11478714D01*
X16543143Y-11478714D02*
X16524096Y-11469190D01*
X16524096Y-11469190D02*
X16495524Y-11469190D01*
X16495524Y-11469190D02*
X16476476Y-11478714D01*
X16476476Y-11478714D02*
X16466953Y-11488238D01*
X16676476Y-11602524D02*
X16657429Y-11593000D01*
X16657429Y-11593000D02*
X16647905Y-11583476D01*
X16647905Y-11583476D02*
X16638381Y-11564428D01*
X16638381Y-11564428D02*
X16638381Y-11507286D01*
X16638381Y-11507286D02*
X16647905Y-11488238D01*
X16647905Y-11488238D02*
X16657429Y-11478714D01*
X16657429Y-11478714D02*
X16676476Y-11469190D01*
X16676476Y-11469190D02*
X16705048Y-11469190D01*
X16705048Y-11469190D02*
X16724096Y-11478714D01*
X16724096Y-11478714D02*
X16733619Y-11488238D01*
X16733619Y-11488238D02*
X16743143Y-11507286D01*
X16743143Y-11507286D02*
X16743143Y-11564428D01*
X16743143Y-11564428D02*
X16733619Y-11583476D01*
X16733619Y-11583476D02*
X16724096Y-11593000D01*
X16724096Y-11593000D02*
X16705048Y-11602524D01*
X16705048Y-11602524D02*
X16676476Y-11602524D01*
X16857429Y-11602524D02*
X16838381Y-11593000D01*
X16838381Y-11593000D02*
X16828858Y-11573952D01*
X16828858Y-11573952D02*
X16828858Y-11402524D01*
X17009810Y-11593000D02*
X16990762Y-11602524D01*
X16990762Y-11602524D02*
X16952667Y-11602524D01*
X16952667Y-11602524D02*
X16933619Y-11593000D01*
X16933619Y-11593000D02*
X16924096Y-11573952D01*
X16924096Y-11573952D02*
X16924096Y-11497762D01*
X16924096Y-11497762D02*
X16933619Y-11478714D01*
X16933619Y-11478714D02*
X16952667Y-11469190D01*
X16952667Y-11469190D02*
X16990762Y-11469190D01*
X16990762Y-11469190D02*
X17009810Y-11478714D01*
X17009810Y-11478714D02*
X17019334Y-11497762D01*
X17019334Y-11497762D02*
X17019334Y-11516809D01*
X17019334Y-11516809D02*
X16924096Y-11535857D01*
X17095524Y-11593000D02*
X17114572Y-11602524D01*
X17114572Y-11602524D02*
X17152667Y-11602524D01*
X17152667Y-11602524D02*
X17171715Y-11593000D01*
X17171715Y-11593000D02*
X17181239Y-11573952D01*
X17181239Y-11573952D02*
X17181239Y-11564428D01*
X17181239Y-11564428D02*
X17171715Y-11545381D01*
X17171715Y-11545381D02*
X17152667Y-11535857D01*
X17152667Y-11535857D02*
X17124096Y-11535857D01*
X17124096Y-11535857D02*
X17105048Y-11526333D01*
X17105048Y-11526333D02*
X17095524Y-11507286D01*
X17095524Y-11507286D02*
X17095524Y-11497762D01*
X17095524Y-11497762D02*
X17105048Y-11478714D01*
X17105048Y-11478714D02*
X17124096Y-11469190D01*
X17124096Y-11469190D02*
X17152667Y-11469190D01*
X17152667Y-11469190D02*
X17171715Y-11478714D01*
X17247905Y-11678714D02*
X17257429Y-11669190D01*
X17257429Y-11669190D02*
X17276477Y-11640619D01*
X17276477Y-11640619D02*
X17286000Y-11621571D01*
X17286000Y-11621571D02*
X17295524Y-11593000D01*
X17295524Y-11593000D02*
X17305048Y-11545381D01*
X17305048Y-11545381D02*
X17305048Y-11507286D01*
X17305048Y-11507286D02*
X17295524Y-11459667D01*
X17295524Y-11459667D02*
X17286000Y-11431095D01*
X17286000Y-11431095D02*
X17276477Y-11412048D01*
X17276477Y-11412048D02*
X17257429Y-11383476D01*
X17257429Y-11383476D02*
X17247905Y-11373952D01*
M02*
